<mxfile host="Electron" modified="2024-04-28T12:21:57.928Z" agent="Mozilla/5.0 (Windows NT 10.0; Win64; x64) AppleWebKit/537.36 (KHTML, like Gecko) draw.io/24.2.5 Chrome/120.0.6099.109 Electron/28.1.0 Safari/537.36" etag="hliuF4N92Fgv1st8j-r0" version="24.2.5" type="device">
  <diagram id="C5RBs43oDa-KdzZeNtuy" name="Page-1">
    <mxGraphModel dx="1480" dy="866" grid="0" gridSize="10" guides="1" tooltips="1" connect="1" arrows="1" fold="1" page="1" pageScale="1" pageWidth="827" pageHeight="1169" math="0" shadow="0">
      <root>
        <mxCell id="WIyWlLk6GJQsqaUBKTNV-0" />
        <mxCell id="WIyWlLk6GJQsqaUBKTNV-1" parent="WIyWlLk6GJQsqaUBKTNV-0" />
        <mxCell id="9Nmc_kyPYJZD9_paEMkF-78" style="edgeStyle=orthogonalEdgeStyle;rounded=0;orthogonalLoop=1;jettySize=auto;html=1;entryX=0.5;entryY=0;entryDx=0;entryDy=0;arcSize=10;" edge="1" parent="WIyWlLk6GJQsqaUBKTNV-1" source="9Nmc_kyPYJZD9_paEMkF-79" target="9Nmc_kyPYJZD9_paEMkF-118">
          <mxGeometry relative="1" as="geometry" />
        </mxCell>
        <mxCell id="9Nmc_kyPYJZD9_paEMkF-79" value="&lt;span style=&quot;font-size: 15px;&quot;&gt;Admin&lt;/span&gt;" style="rounded=0;whiteSpace=wrap;html=1;fontSize=12;glass=0;strokeWidth=2;shadow=0;arcSize=10;" vertex="1" parent="WIyWlLk6GJQsqaUBKTNV-1">
          <mxGeometry x="346" y="72" width="120" height="40" as="geometry" />
        </mxCell>
        <mxCell id="9Nmc_kyPYJZD9_paEMkF-80" value="&lt;font style=&quot;font-size: 15px;&quot;&gt;Register&lt;/font&gt;" style="rounded=1;whiteSpace=wrap;html=1;fontSize=12;glass=0;strokeWidth=2;shadow=0;arcSize=10;" vertex="1" parent="WIyWlLk6GJQsqaUBKTNV-1">
          <mxGeometry x="190" y="276" width="112" height="38" as="geometry" />
        </mxCell>
        <mxCell id="9Nmc_kyPYJZD9_paEMkF-81" style="edgeStyle=orthogonalEdgeStyle;rounded=0;orthogonalLoop=1;jettySize=auto;html=1;entryX=0.5;entryY=0;entryDx=0;entryDy=0;arcSize=10;" edge="1" parent="WIyWlLk6GJQsqaUBKTNV-1" source="9Nmc_kyPYJZD9_paEMkF-82" target="9Nmc_kyPYJZD9_paEMkF-85">
          <mxGeometry relative="1" as="geometry" />
        </mxCell>
        <mxCell id="9Nmc_kyPYJZD9_paEMkF-166" style="edgeStyle=orthogonalEdgeStyle;rounded=0;orthogonalLoop=1;jettySize=auto;html=1;" edge="1" parent="WIyWlLk6GJQsqaUBKTNV-1" source="9Nmc_kyPYJZD9_paEMkF-82">
          <mxGeometry relative="1" as="geometry">
            <mxPoint x="656.6923389923879" y="301.5" as="targetPoint" />
          </mxGeometry>
        </mxCell>
        <mxCell id="9Nmc_kyPYJZD9_paEMkF-82" value="&lt;font style=&quot;font-size: 15px;&quot;&gt;Login&amp;nbsp;&lt;/font&gt;" style="rounded=1;whiteSpace=wrap;html=1;strokeWidth=2;arcSize=10;" vertex="1" parent="WIyWlLk6GJQsqaUBKTNV-1">
          <mxGeometry x="493" y="283" width="97" height="37" as="geometry" />
        </mxCell>
        <mxCell id="9Nmc_kyPYJZD9_paEMkF-84" style="edgeStyle=orthogonalEdgeStyle;rounded=0;orthogonalLoop=1;jettySize=auto;html=1;entryX=0.5;entryY=0;entryDx=0;entryDy=0;arcSize=10;" edge="1" parent="WIyWlLk6GJQsqaUBKTNV-1" source="9Nmc_kyPYJZD9_paEMkF-85" target="9Nmc_kyPYJZD9_paEMkF-89">
          <mxGeometry relative="1" as="geometry" />
        </mxCell>
        <mxCell id="9Nmc_kyPYJZD9_paEMkF-85" value="&lt;font style=&quot;font-size: 15px;&quot;&gt;Enter Email, Password&lt;/font&gt;" style="rounded=1;whiteSpace=wrap;html=1;strokeWidth=2;arcSize=10;" vertex="1" parent="WIyWlLk6GJQsqaUBKTNV-1">
          <mxGeometry x="485.75" y="350" width="111.5" height="47" as="geometry" />
        </mxCell>
        <mxCell id="9Nmc_kyPYJZD9_paEMkF-169" style="edgeStyle=orthogonalEdgeStyle;rounded=0;orthogonalLoop=1;jettySize=auto;html=1;entryX=0.75;entryY=0;entryDx=0;entryDy=0;" edge="1" parent="WIyWlLk6GJQsqaUBKTNV-1" source="9Nmc_kyPYJZD9_paEMkF-87" target="9Nmc_kyPYJZD9_paEMkF-82">
          <mxGeometry relative="1" as="geometry">
            <Array as="points">
              <mxPoint x="772" y="373" />
              <mxPoint x="772" y="249" />
              <mxPoint x="566" y="249" />
            </Array>
          </mxGeometry>
        </mxCell>
        <mxCell id="9Nmc_kyPYJZD9_paEMkF-87" value="&lt;font style=&quot;font-size: 15px;&quot;&gt;Change&amp;nbsp;&lt;/font&gt;&lt;div&gt;&lt;font style=&quot;font-size: 15px;&quot;&gt;Password&lt;/font&gt;&lt;/div&gt;" style="rounded=1;whiteSpace=wrap;html=1;strokeWidth=2;arcSize=10;" vertex="1" parent="WIyWlLk6GJQsqaUBKTNV-1">
          <mxGeometry x="658" y="351" width="89" height="46" as="geometry" />
        </mxCell>
        <mxCell id="9Nmc_kyPYJZD9_paEMkF-139" style="edgeStyle=orthogonalEdgeStyle;rounded=0;orthogonalLoop=1;jettySize=auto;html=1;entryX=0.5;entryY=0;entryDx=0;entryDy=0;" edge="1" parent="WIyWlLk6GJQsqaUBKTNV-1" source="9Nmc_kyPYJZD9_paEMkF-89" target="9Nmc_kyPYJZD9_paEMkF-141">
          <mxGeometry relative="1" as="geometry">
            <mxPoint x="222" y="785" as="targetPoint" />
            <Array as="points">
              <mxPoint x="542" y="710" />
              <mxPoint x="148" y="710" />
            </Array>
          </mxGeometry>
        </mxCell>
        <mxCell id="9Nmc_kyPYJZD9_paEMkF-145" style="edgeStyle=orthogonalEdgeStyle;rounded=0;orthogonalLoop=1;jettySize=auto;html=1;entryX=0.5;entryY=0;entryDx=0;entryDy=0;exitX=0.5;exitY=1;exitDx=0;exitDy=0;" edge="1" parent="WIyWlLk6GJQsqaUBKTNV-1" target="9Nmc_kyPYJZD9_paEMkF-142">
          <mxGeometry relative="1" as="geometry">
            <mxPoint x="539.4999999999998" y="496.5000000000002" as="sourcePoint" />
            <mxPoint x="284.5000000000002" y="777" as="targetPoint" />
            <Array as="points">
              <mxPoint x="542" y="497" />
              <mxPoint x="542" y="710" />
              <mxPoint x="284" y="710" />
            </Array>
          </mxGeometry>
        </mxCell>
        <mxCell id="9Nmc_kyPYJZD9_paEMkF-146" style="edgeStyle=orthogonalEdgeStyle;rounded=0;orthogonalLoop=1;jettySize=auto;html=1;entryX=0.5;entryY=0;entryDx=0;entryDy=0;" edge="1" parent="WIyWlLk6GJQsqaUBKTNV-1" source="9Nmc_kyPYJZD9_paEMkF-89" target="9Nmc_kyPYJZD9_paEMkF-143">
          <mxGeometry relative="1" as="geometry">
            <Array as="points">
              <mxPoint x="542" y="710" />
              <mxPoint x="420" y="710" />
            </Array>
          </mxGeometry>
        </mxCell>
        <mxCell id="9Nmc_kyPYJZD9_paEMkF-150" style="edgeStyle=orthogonalEdgeStyle;rounded=0;orthogonalLoop=1;jettySize=auto;html=1;entryX=0.5;entryY=0;entryDx=0;entryDy=0;" edge="1" parent="WIyWlLk6GJQsqaUBKTNV-1" source="9Nmc_kyPYJZD9_paEMkF-89" target="9Nmc_kyPYJZD9_paEMkF-148">
          <mxGeometry relative="1" as="geometry">
            <Array as="points">
              <mxPoint x="542" y="710" />
              <mxPoint x="684" y="710" />
            </Array>
          </mxGeometry>
        </mxCell>
        <mxCell id="9Nmc_kyPYJZD9_paEMkF-158" style="edgeStyle=orthogonalEdgeStyle;rounded=0;orthogonalLoop=1;jettySize=auto;html=1;entryX=0;entryY=0.5;entryDx=0;entryDy=0;" edge="1" parent="WIyWlLk6GJQsqaUBKTNV-1" source="9Nmc_kyPYJZD9_paEMkF-89" target="9Nmc_kyPYJZD9_paEMkF-82">
          <mxGeometry relative="1" as="geometry">
            <Array as="points">
              <mxPoint x="449" y="458" />
              <mxPoint x="449" y="302" />
            </Array>
          </mxGeometry>
        </mxCell>
        <mxCell id="9Nmc_kyPYJZD9_paEMkF-89" value="" style="rhombus;whiteSpace=wrap;html=1;strokeWidth=2;arcSize=10;" vertex="1" parent="WIyWlLk6GJQsqaUBKTNV-1">
          <mxGeometry x="501" y="419.5" width="81" height="77" as="geometry" />
        </mxCell>
        <mxCell id="9Nmc_kyPYJZD9_paEMkF-90" style="edgeStyle=orthogonalEdgeStyle;rounded=0;orthogonalLoop=1;jettySize=auto;html=1;entryX=0.5;entryY=0;entryDx=0;entryDy=0;arcSize=10;" edge="1" parent="WIyWlLk6GJQsqaUBKTNV-1" source="9Nmc_kyPYJZD9_paEMkF-91" target="9Nmc_kyPYJZD9_paEMkF-99">
          <mxGeometry relative="1" as="geometry" />
        </mxCell>
        <mxCell id="9Nmc_kyPYJZD9_paEMkF-91" value="&lt;font style=&quot;font-size: 15px;&quot;&gt;Valid&lt;/font&gt;" style="rhombus;whiteSpace=wrap;html=1;strokeWidth=2;arcSize=10;" vertex="1" parent="WIyWlLk6GJQsqaUBKTNV-1">
          <mxGeometry x="205.5" y="465" width="81" height="77" as="geometry" />
        </mxCell>
        <mxCell id="9Nmc_kyPYJZD9_paEMkF-92" style="edgeStyle=orthogonalEdgeStyle;rounded=0;orthogonalLoop=1;jettySize=auto;html=1;entryX=0.5;entryY=0;entryDx=0;entryDy=0;arcSize=10;" edge="1" parent="WIyWlLk6GJQsqaUBKTNV-1" target="9Nmc_kyPYJZD9_paEMkF-95">
          <mxGeometry relative="1" as="geometry">
            <mxPoint x="245.5" y="314.5" as="sourcePoint" />
          </mxGeometry>
        </mxCell>
        <mxCell id="9Nmc_kyPYJZD9_paEMkF-94" style="edgeStyle=orthogonalEdgeStyle;rounded=0;orthogonalLoop=1;jettySize=auto;html=1;entryX=0.5;entryY=0;entryDx=0;entryDy=0;arcSize=10;" edge="1" parent="WIyWlLk6GJQsqaUBKTNV-1" source="9Nmc_kyPYJZD9_paEMkF-95" target="9Nmc_kyPYJZD9_paEMkF-91">
          <mxGeometry relative="1" as="geometry" />
        </mxCell>
        <mxCell id="9Nmc_kyPYJZD9_paEMkF-95" value="&lt;font style=&quot;font-size: 15px;&quot;&gt;Enter Userame, Email, Password&lt;/font&gt;" style="rounded=1;whiteSpace=wrap;html=1;strokeWidth=2;arcSize=10;" vertex="1" parent="WIyWlLk6GJQsqaUBKTNV-1">
          <mxGeometry x="159" y="356.5" width="173" height="50" as="geometry" />
        </mxCell>
        <mxCell id="9Nmc_kyPYJZD9_paEMkF-96" style="edgeStyle=orthogonalEdgeStyle;rounded=0;orthogonalLoop=1;jettySize=auto;html=1;entryX=0;entryY=0.5;entryDx=0;entryDy=0;exitX=0.547;exitY=0.075;exitDx=0;exitDy=0;exitPerimeter=0;" edge="1" parent="WIyWlLk6GJQsqaUBKTNV-1" target="9Nmc_kyPYJZD9_paEMkF-95">
          <mxGeometry relative="1" as="geometry">
            <Array as="points">
              <mxPoint x="129" y="382" />
            </Array>
            <mxPoint x="128.99099999999999" y="437.9499999999998" as="sourcePoint" />
          </mxGeometry>
        </mxCell>
        <mxCell id="9Nmc_kyPYJZD9_paEMkF-97" value="Invalid" style="text;html=1;align=center;verticalAlign=middle;resizable=0;points=[];autosize=1;strokeColor=none;fillColor=none;arcSize=10;" vertex="1" parent="WIyWlLk6GJQsqaUBKTNV-1">
          <mxGeometry x="100" y="439" width="53" height="26" as="geometry" />
        </mxCell>
        <mxCell id="9Nmc_kyPYJZD9_paEMkF-98" style="edgeStyle=orthogonalEdgeStyle;rounded=0;orthogonalLoop=1;jettySize=auto;html=1;entryX=0;entryY=0.5;entryDx=0;entryDy=0;" edge="1" parent="WIyWlLk6GJQsqaUBKTNV-1" source="9Nmc_kyPYJZD9_paEMkF-99" target="9Nmc_kyPYJZD9_paEMkF-82">
          <mxGeometry relative="1" as="geometry" />
        </mxCell>
        <mxCell id="9Nmc_kyPYJZD9_paEMkF-99" value="&lt;span style=&quot;font-size: 15px;&quot;&gt;Successfully Registered&lt;/span&gt;" style="rounded=1;whiteSpace=wrap;html=1;strokeWidth=2;arcSize=10;" vertex="1" parent="WIyWlLk6GJQsqaUBKTNV-1">
          <mxGeometry x="159" y="615" width="173" height="50" as="geometry" />
        </mxCell>
        <mxCell id="9Nmc_kyPYJZD9_paEMkF-100" value="Valid Information" style="text;html=1;align=center;verticalAlign=middle;resizable=0;points=[];autosize=1;strokeColor=none;fillColor=none;arcSize=10;" vertex="1" parent="WIyWlLk6GJQsqaUBKTNV-1">
          <mxGeometry x="142" y="558" width="107" height="26" as="geometry" />
        </mxCell>
        <mxCell id="9Nmc_kyPYJZD9_paEMkF-172" style="edgeStyle=orthogonalEdgeStyle;rounded=0;orthogonalLoop=1;jettySize=auto;html=1;" edge="1" parent="WIyWlLk6GJQsqaUBKTNV-1" source="9Nmc_kyPYJZD9_paEMkF-102">
          <mxGeometry relative="1" as="geometry">
            <mxPoint x="701.5" y="349.17073468464184" as="targetPoint" />
          </mxGeometry>
        </mxCell>
        <mxCell id="9Nmc_kyPYJZD9_paEMkF-102" value="&lt;span style=&quot;font-size: 15px;&quot;&gt;Forgot Password&lt;/span&gt;" style="rounded=1;whiteSpace=wrap;html=1;strokeWidth=2;arcSize=10;" vertex="1" parent="WIyWlLk6GJQsqaUBKTNV-1">
          <mxGeometry x="658" y="276" width="87" height="47" as="geometry" />
        </mxCell>
        <mxCell id="9Nmc_kyPYJZD9_paEMkF-117" style="edgeStyle=orthogonalEdgeStyle;rounded=0;orthogonalLoop=1;jettySize=auto;html=1;entryX=0.5;entryY=0;entryDx=0;entryDy=0;arcSize=10;" edge="1" parent="WIyWlLk6GJQsqaUBKTNV-1" source="9Nmc_kyPYJZD9_paEMkF-118" target="9Nmc_kyPYJZD9_paEMkF-80">
          <mxGeometry relative="1" as="geometry">
            <mxPoint x="406" y="163.9999999999999" as="targetPoint" />
            <Array as="points">
              <mxPoint x="406" y="216" />
              <mxPoint x="246" y="216" />
            </Array>
          </mxGeometry>
        </mxCell>
        <mxCell id="9Nmc_kyPYJZD9_paEMkF-134" style="edgeStyle=orthogonalEdgeStyle;rounded=0;orthogonalLoop=1;jettySize=auto;html=1;entryX=0.5;entryY=0;entryDx=0;entryDy=0;" edge="1" parent="WIyWlLk6GJQsqaUBKTNV-1">
          <mxGeometry relative="1" as="geometry">
            <mxPoint x="406.03703703703695" y="185" as="sourcePoint" />
            <mxPoint x="541.4999999999998" y="276.5" as="targetPoint" />
            <Array as="points">
              <mxPoint x="406" y="216" />
              <mxPoint x="542" y="216" />
            </Array>
          </mxGeometry>
        </mxCell>
        <mxCell id="9Nmc_kyPYJZD9_paEMkF-118" value="&lt;span style=&quot;font-size: 15px;&quot;&gt;View Packages&lt;/span&gt;" style="rounded=1;whiteSpace=wrap;html=1;fontSize=12;glass=0;strokeWidth=2;shadow=0;arcSize=10;" vertex="1" parent="WIyWlLk6GJQsqaUBKTNV-1">
          <mxGeometry x="347" y="146" width="118" height="41" as="geometry" />
        </mxCell>
        <mxCell id="9Nmc_kyPYJZD9_paEMkF-124" style="edgeStyle=orthogonalEdgeStyle;rounded=0;orthogonalLoop=1;jettySize=auto;html=1;entryX=0.512;entryY=0.942;entryDx=0;entryDy=0;entryPerimeter=0;" edge="1" parent="WIyWlLk6GJQsqaUBKTNV-1" source="9Nmc_kyPYJZD9_paEMkF-91">
          <mxGeometry relative="1" as="geometry">
            <mxPoint x="127.13599999999974" y="460.49199999999973" as="targetPoint" />
          </mxGeometry>
        </mxCell>
        <mxCell id="9Nmc_kyPYJZD9_paEMkF-141" value="&lt;span style=&quot;font-size: 15px;&quot;&gt;Manage Packages&lt;/span&gt;" style="rounded=1;whiteSpace=wrap;html=1;strokeWidth=2;arcSize=10;" vertex="1" parent="WIyWlLk6GJQsqaUBKTNV-1">
          <mxGeometry x="88" y="783" width="119" height="53" as="geometry" />
        </mxCell>
        <mxCell id="9Nmc_kyPYJZD9_paEMkF-142" value="&lt;span style=&quot;font-size: 15px;&quot;&gt;Manage Users&amp;nbsp;&lt;/span&gt;" style="rounded=1;whiteSpace=wrap;html=1;strokeWidth=2;arcSize=10;" vertex="1" parent="WIyWlLk6GJQsqaUBKTNV-1">
          <mxGeometry x="224" y="783" width="119" height="53" as="geometry" />
        </mxCell>
        <mxCell id="9Nmc_kyPYJZD9_paEMkF-143" value="&lt;span style=&quot;font-size: 15px;&quot;&gt;Manage Payments&lt;/span&gt;" style="rounded=1;whiteSpace=wrap;html=1;strokeWidth=2;arcSize=10;" vertex="1" parent="WIyWlLk6GJQsqaUBKTNV-1">
          <mxGeometry x="360" y="783" width="119" height="53" as="geometry" />
        </mxCell>
        <mxCell id="9Nmc_kyPYJZD9_paEMkF-144" value="&lt;span style=&quot;font-size: 15px;&quot;&gt;View Cancellations&amp;nbsp;&lt;/span&gt;" style="rounded=1;whiteSpace=wrap;html=1;strokeWidth=2;arcSize=10;" vertex="1" parent="WIyWlLk6GJQsqaUBKTNV-1">
          <mxGeometry x="492" y="783" width="119" height="53" as="geometry" />
        </mxCell>
        <mxCell id="9Nmc_kyPYJZD9_paEMkF-148" value="&lt;span style=&quot;font-size: 15px;&quot;&gt;View Feedbacks&lt;/span&gt;" style="rounded=1;whiteSpace=wrap;html=1;strokeWidth=2;arcSize=10;" vertex="1" parent="WIyWlLk6GJQsqaUBKTNV-1">
          <mxGeometry x="624" y="783" width="119" height="53" as="geometry" />
        </mxCell>
        <mxCell id="9Nmc_kyPYJZD9_paEMkF-152" style="edgeStyle=orthogonalEdgeStyle;rounded=0;orthogonalLoop=1;jettySize=auto;html=1;entryX=0.412;entryY=0.021;entryDx=0;entryDy=0;entryPerimeter=0;" edge="1" parent="WIyWlLk6GJQsqaUBKTNV-1" source="9Nmc_kyPYJZD9_paEMkF-89" target="9Nmc_kyPYJZD9_paEMkF-144">
          <mxGeometry relative="1" as="geometry" />
        </mxCell>
        <mxCell id="9Nmc_kyPYJZD9_paEMkF-155" value="Invalid" style="text;html=1;align=center;verticalAlign=middle;resizable=0;points=[];autosize=1;strokeColor=none;fillColor=none;" vertex="1" parent="WIyWlLk6GJQsqaUBKTNV-1">
          <mxGeometry x="446" y="459" width="53" height="26" as="geometry" />
        </mxCell>
        <mxCell id="9Nmc_kyPYJZD9_paEMkF-174" value="&lt;span style=&quot;color: rgb(0, 0, 0); font-family: Helvetica; font-size: 15px; font-style: normal; font-variant-ligatures: normal; font-variant-caps: normal; font-weight: 400; letter-spacing: normal; orphans: 2; text-align: center; text-indent: 0px; text-transform: none; widows: 2; word-spacing: 0px; -webkit-text-stroke-width: 0px; white-space: normal; background-color: rgb(251, 251, 251); text-decoration-thickness: initial; text-decoration-style: initial; text-decoration-color: initial; display: inline !important; float: none;&quot;&gt;Valid&lt;/span&gt;" style="text;whiteSpace=wrap;html=1;" vertex="1" parent="WIyWlLk6GJQsqaUBKTNV-1">
          <mxGeometry x="521.5" y="441.9999804687501" width="60" height="40" as="geometry" />
        </mxCell>
      </root>
    </mxGraphModel>
  </diagram>
</mxfile>
